<svg xmlns="http://www.w3.org/2000/svg" xmlns:xlink="http://www.w3.org/1999/xlink" width="500" zoomAndPan="magnify" viewBox="0 0 375 374.999991" height="500" preserveAspectRatio="xMidYMid meet" version="1.0"><defs><g/><clipPath id="3d22e5d957"><rect x="0" width="231" y="0" height="375"/></clipPath></defs><rect x="-37.5" width="450" fill="#ffffff" y="-37.499999" height="449.999989" fill-opacity="1"/><rect x="-37.5" width="450" fill="#1ef3b3" y="-37.499999" height="449.999989" fill-opacity="1"/><g transform="matrix(1, 0, 0, 1, 72, 0)"><g clip-path="url(#3d22e5d957)"><g fill="#1c1e22" fill-opacity="0.302"><g transform="translate(11.194181, 305.807509)"><g><path d="M 19.25 0 L 19.25 -216.703125 L 57.453125 -216.703125 L 73.96875 -172.375 L 73.96875 0 Z M 168.71875 0 L 42.171875 -160.765625 L 57.453125 -216.703125 L 184.296875 -55.9375 Z M 168.71875 0 L 154.65625 -45.546875 L 154.65625 -216.703125 L 209.359375 -216.703125 L 209.359375 0 Z M 168.71875 0 "/></g></g></g><g fill="#1c1e22" fill-opacity="0.502"><g transform="translate(6.186591, 302.301156)"><g><path d="M 19.25 0 L 19.25 -216.703125 L 57.453125 -216.703125 L 73.96875 -172.375 L 73.96875 0 Z M 168.71875 0 L 42.171875 -160.765625 L 57.453125 -216.703125 L 184.296875 -55.9375 Z M 168.71875 0 L 154.65625 -45.546875 L 154.65625 -216.703125 L 209.359375 -216.703125 L 209.359375 0 Z M 168.71875 0 "/></g></g></g><g fill="#1c1e22" fill-opacity="1"><g transform="translate(1.179001, 298.794802)"><g><path d="M 19.25 0 L 19.25 -216.703125 L 57.453125 -216.703125 L 73.96875 -172.375 L 73.96875 0 Z M 168.71875 0 L 42.171875 -160.765625 L 57.453125 -216.703125 L 184.296875 -55.9375 Z M 168.71875 0 L 154.65625 -45.546875 L 154.65625 -216.703125 L 209.359375 -216.703125 L 209.359375 0 Z M 168.71875 0 "/></g></g></g></g></g></svg>