<svg version="1.0" preserveAspectRatio="xMidYMid meet" viewBox="24.75 126.74999695800001 330.75 137.24999670600002" zoomAndPan="magnify" xmlns:xlink="http://www.w3.org/1999/xlink" xmlns="http://www.w3.org/2000/svg" style="max-height: 500px" width="330.75" height="137.24999670600002"><defs><g/><clipPath id="e3f765491c"><rect height="134" y="0" width="303" x="0"/></clipPath></defs><g transform="matrix(1, 0, 0, 1, 37, 115)"><g clip-path="url(#e3f765491c)"><g fill-opacity="1" fill="#ffffff"><g transform="translate(0.500002, 104.006034)"><g><path d="M 6.609375 0 L 6.609375 -74.328125 L 19.703125 -74.328125 L 25.375 -59.125 L 25.375 0 Z M 57.875 0 L 14.46875 -55.140625 L 19.703125 -74.328125 L 63.21875 -19.1875 Z M 57.875 0 L 53.046875 -15.625 L 53.046875 -74.328125 L 71.8125 -74.328125 L 71.8125 0 Z M 57.875 0"/></g></g></g><g fill-opacity="1" fill="#ffffff"><g transform="translate(78.914221, 104.006034)"><g><path d="M 6.609375 0 L 6.609375 -74.328125 L 25.375 -74.328125 L 25.375 0 Z M 6.609375 0"/></g></g></g><g fill-opacity="1" fill="#ffffff"><g transform="translate(110.887918, 104.006034)"><g><path d="M 19.296875 0 L 19.296875 -16.140625 L 37.109375 -16.140625 C 41.304688 -16.140625 44.957031 -16.941406 48.0625 -18.546875 C 51.175781 -20.160156 53.570312 -22.554688 55.25 -25.734375 C 56.925781 -28.921875 57.765625 -32.785156 57.765625 -37.328125 C 57.765625 -41.796875 56.90625 -45.582031 55.1875 -48.6875 C 53.476562 -51.800781 51.085938 -54.160156 48.015625 -55.765625 C 44.941406 -57.378906 41.304688 -58.1875 37.109375 -58.1875 L 18.453125 -58.1875 L 18.453125 -74.328125 L 37.21875 -74.328125 C 42.945312 -74.328125 48.222656 -73.4375 53.046875 -71.65625 C 57.867188 -69.875 62.0625 -67.335938 65.625 -64.046875 C 69.195312 -60.765625 71.976562 -56.851562 73.96875 -52.3125 C 75.957031 -47.769531 76.953125 -42.738281 76.953125 -37.21875 C 76.953125 -31.625 75.957031 -26.554688 73.96875 -22.015625 C 71.976562 -17.472656 69.195312 -13.554688 65.625 -10.265625 C 62.0625 -6.984375 57.882812 -4.453125 53.09375 -2.671875 C 48.3125 -0.890625 43.085938 0 37.421875 0 Z M 6.609375 0 L 6.609375 -74.328125 L 25.375 -74.328125 L 25.375 0 Z M 6.609375 0"/></g></g></g><g fill-opacity="1" fill="#ffffff"><g transform="translate(190.664922, 104.006034)"><g><path d="M 6.609375 0 L 6.609375 -74.328125 L 25.375 -74.328125 L 25.375 0 Z M 6.609375 0"/></g></g></g><g fill-opacity="1" fill="#ffffff"><g transform="translate(222.63862, 104.006034)"><g><path d="M 1.15625 0 L 29.984375 -74.328125 L 48.125 -74.328125 L 76.640625 0 L 57.03125 0 L 35.546875 -62.484375 L 42.359375 -62.484375 L 20.34375 0 Z M 18.65625 -13 L 18.65625 -27.890625 L 59.65625 -27.890625 L 59.65625 -13 Z M 18.65625 -13"/></g></g></g></g></g><path stroke-miterlimit="4" stroke-opacity="1" stroke-width="10" stroke="#1ef3b3" d="M 0.000694347 4.998062 L 391.917387 4.998062" stroke-linejoin="miter" fill="none" transform="matrix(0.75, 0, 0, 0.75, 43.561979, 241.634267)" stroke-linecap="butt"/></svg>