<svg xmlns="http://www.w3.org/2000/svg" xmlns:xlink="http://www.w3.org/1999/xlink" width="500" zoomAndPan="magnify" viewBox="0 0 375 374.999991" height="500" preserveAspectRatio="xMidYMid meet" version="1.0"><defs><g/></defs><g fill="#1c1e22" fill-opacity="1"><g transform="translate(37.511721, 221.87165)"><g><path d="M 6.609375 0 L 6.609375 -74.34375 L 19.71875 -74.34375 L 25.375 -59.140625 L 25.375 0 Z M 57.875 0 L 14.46875 -55.15625 L 19.71875 -74.34375 L 63.234375 -19.1875 Z M 57.875 0 L 53.0625 -15.625 L 53.0625 -74.34375 L 71.828125 -74.34375 L 71.828125 0 Z M 57.875 0 "/></g></g></g><g fill="#1c1e22" fill-opacity="1"><g transform="translate(115.937813, 221.87165)"><g><path d="M 6.609375 0 L 6.609375 -74.34375 L 25.375 -74.34375 L 25.375 0 Z M 6.609375 0 "/></g></g></g><g fill="#1c1e22" fill-opacity="1"><g transform="translate(147.916369, 221.87165)"><g><path d="M 19.296875 0 L 19.296875 -16.140625 L 37.125 -16.140625 C 41.3125 -16.140625 44.960938 -16.941406 48.078125 -18.546875 C 51.191406 -20.160156 53.585938 -22.554688 55.265625 -25.734375 C 56.941406 -28.921875 57.78125 -32.785156 57.78125 -37.328125 C 57.78125 -41.804688 56.921875 -45.597656 55.203125 -48.703125 C 53.492188 -51.816406 51.097656 -54.175781 48.015625 -55.78125 C 44.941406 -57.394531 41.3125 -58.203125 37.125 -58.203125 L 18.453125 -58.203125 L 18.453125 -74.34375 L 37.21875 -74.34375 C 42.957031 -74.34375 48.238281 -73.453125 53.0625 -71.671875 C 57.882812 -69.890625 62.078125 -67.351562 65.640625 -64.0625 C 69.203125 -60.78125 71.976562 -56.867188 73.96875 -52.328125 C 75.96875 -47.785156 76.96875 -42.75 76.96875 -37.21875 C 76.96875 -31.632812 75.96875 -26.566406 73.96875 -22.015625 C 71.976562 -17.472656 69.203125 -13.554688 65.640625 -10.265625 C 62.078125 -6.984375 57.898438 -4.453125 53.109375 -2.671875 C 48.316406 -0.890625 43.09375 0 37.4375 0 Z M 6.609375 0 L 6.609375 -74.34375 L 25.375 -74.34375 L 25.375 0 Z M 6.609375 0 "/></g></g></g><g fill="#1c1e22" fill-opacity="1"><g transform="translate(227.705487, 221.87165)"><g><path d="M 6.609375 0 L 6.609375 -74.34375 L 25.375 -74.34375 L 25.375 0 Z M 6.609375 0 "/></g></g></g><g fill="#1c1e22" fill-opacity="1"><g transform="translate(259.684054, 221.87165)"><g><path d="M 1.15625 0 L 29.984375 -74.34375 L 48.125 -74.34375 L 76.65625 0 L 57.046875 0 L 35.546875 -62.5 L 42.359375 -62.5 L 20.34375 0 Z M 18.671875 -13 L 18.671875 -27.890625 L 59.671875 -27.890625 L 59.671875 -13 Z M 18.671875 -13 "/></g></g></g><path stroke-linecap="butt" transform="matrix(0.75, -0.000000000000000093, 0.000000000000000093, 0.75, 43.561979, 241.634267)" fill="none" stroke-linejoin="miter" d="M 0.000694347 4.998062 L 391.917387 4.998062 " stroke="#1ef3b3" stroke-width="10" stroke-opacity="1" stroke-miterlimit="4"/></svg>